# xmcd
#
# Track frame offsets:
#	150
#	14265
#	26853
#	37340
#	49354
#	62209
#	78496
#
# Disc length: 1188 seconds
#
# Revision: 0
# Processed by: cddbd v1.5.2PL0 Copyright (c) Steve Scherf et al.
# Submitted via: EasyCDDAExtractor 16.0.0.1
#
DISCID=6104a207
DTITLE=Schultzes - Schultzes Blues Stay Away
DYEAR=2016
DGENRE=Blues
TTITLE0=Blues Stay Away
TTITLE1=Sitting On Top Of The World
TTITLE2=Caroline
TTITLE3=Ridin Home
TTITLE4=Arrangement For Me Blues
TTITLE5=Good Night Irene
TTITLE6=Further On The Road
EXTD=
EXTT0=
EXTT1=
EXTT2=
EXTT3=
EXTT4=
EXTT5=
EXTT6=
PLAYORDER=
